# xmcd
#
# Track frame offsets: 
#        150
#        15015
#        52720
#        66337
#
# Disc length: 2266 seconds
#
# Revision: 7
# Processed by: cddbd v1.5.2PL0 Copyright (c) Steve Scherf et al.
# Submitted via: ExactAudioCopy v1.0b1
#
DISCID=2108d804
DTITLE=Various Artist - Concert For George - CD 1
DYEAR=2001
DGENRE=Indie
TTITLE0=Sarve Shaam
TTITLE1=Your Eyes
TTITLE2=The Inner Light
TTITLE3=Arpan
EXTD=
EXTT0=Anoushka Shankar - Sitar
EXTT1=Anoushka Shankar - Sitar
EXTT2=Jeff Lynne - Lead Vocals\nAnoushka Shankar
EXTT3=Anoushka Shankar - Conductor\nEric Clapton - Classic Guitar Solo
PLAYORDER=
